<?xml version="1.0" standalone="no"?><!DOCTYPE svg PUBLIC "-//W3C//DTD SVG 1.1//EN" "http://www.w3.org/Graphics/SVG/1.1/DTD/svg11.dtd"><svg class="icon" width="48px" height="48.00px" viewBox="0 0 1024 1024" version="1.1" xmlns="http://www.w3.org/2000/svg"><path d="M939.2 57.6H84.8c-16 0-28.8 12.8-28.8 28.8v852.8c0 16 12.8 28.8 28.8 28.8h852.8c16 0 28.8-12.8 28.8-28.8V84.8c0-14.4-12.8-27.2-27.2-27.2z m0-57.6C985.6 0 1024 38.4 1024 84.8v852.8c0 46.4-38.4 84.8-84.8 84.8H84.8C38.4 1024 0 985.6 0 939.2V84.8C0 38.4 38.4 0 84.8 0h854.4zM454.4 540.8c0 16-19.2 28.8-43.2 28.8H214.4c-24 0-43.2-12.8-43.2-28.8s19.2-28.8 43.2-28.8h198.4c22.4 0 41.6 12.8 41.6 28.8z m284.8 169.6c0 16-16 28.8-35.2 28.8H206.4c-19.2 0-35.2-12.8-35.2-28.8s16-28.8 35.2-28.8H704c19.2 1.6 35.2 14.4 35.2 28.8z m-512-596.8h569.6c32 0 57.6 25.6 57.6 57.6v113.6c0 32-25.6 57.6-57.6 57.6H227.2c-32 0-57.6-25.6-57.6-57.6v-113.6c1.6-32 27.2-57.6 57.6-57.6z m0 57.6v113.6h569.6v-113.6H227.2z" /></svg>