<?xml version="1.0" standalone="no"?><!DOCTYPE svg PUBLIC "-//W3C//DTD SVG 1.1//EN" "http://www.w3.org/Graphics/SVG/1.1/DTD/svg11.dtd"><svg class="icon" width="48px" height="48.00px" viewBox="0 0 1024 1024" version="1.1" xmlns="http://www.w3.org/2000/svg"><path d="M831.135345 127.866805a63.933403 63.933403 0 0 0-63.208824 73.598002L601.848852 325.399709A63.667014 63.667014 0 0 0 575.401734 319.667014h-0.255733l-71.829178-96.251738A63.933403 63.933403 0 1 0 383.601526 192.194464a64.380937 64.380937 0 0 0 0.788512 10.016233L219.313992 325.399709A63.933403 63.933403 0 1 0 256.800277 383.600416c0-2.131113-0.106556-4.145016-0.298355-6.169573l168.198127-125.522581a63.752258 63.752258 0 0 0 22.845535 4.262227h0.404912l71.743933 96.145182A63.933403 63.933403 0 1 0 639.335137 383.600416c0-2.131113-0.106556-4.145016-0.298356-6.169573l168.91205-126.055359A63.933403 63.933403 0 1 0 831.135345 127.866805z"  /><path d="M925.714159 1.065557H97.222504A97.32795 97.32795 0 0 0 0.00111 98.286951v828.491655A97.32795 97.32795 0 0 0 97.222504 1024h828.491655A97.32795 97.32795 0 0 0 1022.935553 926.778606V98.286951A97.32795 97.32795 0 0 0 925.714159 1.065557zM959.002151 926.778606A33.319958 33.319958 0 0 1 925.714159 960.066597H97.222504A33.319958 33.319958 0 0 1 63.934513 926.778606V98.286951A33.319958 33.319958 0 0 1 97.222504 64.998959h828.491655A33.319958 33.319958 0 0 1 959.002151 98.286951z"  /><path d="M798.103087 575.400624H222.702463a31.966701 31.966701 0 0 0 0 63.933403h575.400624a31.966701 31.966701 0 0 0 0-63.933403zM671.301838 702.201873H223.768019a32.062601 32.062601 0 0 0-31.966701 31.966701 32.062601 32.062601 0 0 0 31.966701 31.966702h447.533819a32.062601 32.062601 0 0 0 31.966702-31.966702 32.062601 32.062601 0 0 0-31.966702-31.966701zM543.435033 830.068678H223.768019a32.062601 32.062601 0 0 0-31.966701 31.966702 32.062601 32.062601 0 0 0 31.966701 31.966701h319.667014a32.062601 32.062601 0 0 0 31.966701-31.966701 32.062601 32.062601 0 0 0-31.966701-31.966702z"  /></svg>