<?xml version="1.0" standalone="no"?><!DOCTYPE svg PUBLIC "-//W3C//DTD SVG 1.1//EN" "http://www.w3.org/Graphics/SVG/1.1/DTD/svg11.dtd"><svg class="icon" width="48px" height="48.00px" viewBox="0 0 1024 1024" version="1.1" xmlns="http://www.w3.org/2000/svg"><path d="M321.839 468.108h380.346a14.639 14.639 0 0 0 14.638-14.639v-29.254a14.662 14.662 0 0 0-14.638-14.638H321.839a14.615 14.615 0 0 0-14.616 14.638v29.254a14.592 14.592 0 0 0 14.616 14.639zM819.2 555.892H321.839a14.639 14.639 0 0 0-14.616 14.639v29.254c0 8.075 6.54 14.638 14.616 14.638H819.2a14.615 14.615 0 0 0 14.615-14.638V570.53a14.615 14.615 0 0 0-14.615-14.639zM234.054 234.054H204.8a14.615 14.615 0 0 0-14.615 14.638v526.639c0 8.076 6.54 14.638 14.615 14.638h29.254a14.662 14.662 0 0 0 14.638-14.638V248.692a14.662 14.662 0 0 0-14.638-14.638zM892.346 73.146H131.654a87.738 87.738 0 0 0-87.762 87.762v702.161a87.761 87.761 0 0 0 87.762 87.762h760.692a87.761 87.761 0 0 0 87.762-87.762V160.908a87.738 87.738 0 0 0-87.762-87.762zM921.6 863.092c0 16.152-13.103 29.254-29.254 29.254H131.654a29.254 29.254 0 0 1-29.254-29.254V160.908c0-16.152 13.103-29.254 29.254-29.254h760.692c16.151 0 29.254 13.102 29.254 29.254v702.184zM819.2 263.308H321.839a14.615 14.615 0 0 0-14.616 14.638V307.2c0 8.076 6.54 14.639 14.616 14.639H819.2a14.615 14.615 0 0 0 14.615-14.639v-29.254a14.639 14.639 0 0 0-14.615-14.638zM702.161 702.16H321.84a14.615 14.615 0 0 0-14.616 14.639v29.254c0 8.075 6.54 14.638 14.616 14.638h380.346a14.639 14.639 0 0 0 14.638-14.638V716.8a14.662 14.662 0 0 0-14.662-14.639z"  /></svg>