<?xml version="1.0" standalone="no"?><!DOCTYPE svg PUBLIC "-//W3C//DTD SVG 1.1//EN" "http://www.w3.org/Graphics/SVG/1.1/DTD/svg11.dtd"><svg class="icon" width="48px" height="48.00px" viewBox="0 0 1024 1024" version="1.1" xmlns="http://www.w3.org/2000/svg"><path d="M886.897947 146.716526H806.84982c0-36.680411-12.646018-83.119069-49.215912-83.119069H112.462886c-36.567847 0-65.273632 28.816303-65.273632 68.092841l0.11154 691.456185c0 36.643572-0.053212 76.386738 0 75.955926 0.799202 51.043536 30.134321 74.237795 75.954903 75.954902H890.853026c36.567847 0 67.906599-31.41243 67.906599-68.056002v-691.591261c0-36.642548-35.292807-68.693522-71.861678-68.693522z m-763.64225-7.163143h607.63922l-0.015349-0.230244 0.015349 0.230244v607.63922h-607.63922v-607.63922c-0.795109-0.207731 0.484024-0.719384 0 0z m759.549025 759.549026h-759.549025v-75.955926h683.595146v-607.639221h75.954903v683.595147z m-379.774512-607.639221H275.165502v75.954903H503.03021v-75.954903z m75.955925 227.864708H275.165502v75.954902h303.820633v-75.954902z" /></svg>