<?xml version="1.0" standalone="no"?><!DOCTYPE svg PUBLIC "-//W3C//DTD SVG 1.1//EN" "http://www.w3.org/Graphics/SVG/1.1/DTD/svg11.dtd"><svg class="icon" width="48px" height="48.00px" viewBox="0 0 1024 1024" version="1.1" xmlns="http://www.w3.org/2000/svg"><path d="M480.255992 959.370981L85.3068 958.96585a21.322672 21.322672 0 0 1-21.322672-21.322672V85.290688a21.322672 21.322672 0 0 1 21.322672-21.322672h597.034816a21.322672 21.322672 0 0 1 21.322672 21.322672V415.237714a31.984008 31.984008 0 0 0 63.968016 0V85.290688a85.38664 85.38664 0 0 0-85.290688-85.290688h-597.034816a85.38664 85.38664 0 0 0-85.290688 85.290688V937.643178a85.407963 85.407963 0 0 0 85.194736 85.290688l394.981176 0.362486a31.984008 31.984008 0 0 0 0-63.968016z"  /><path d="M948.096738 586.885224a255.872064 255.872064 0 1 0 74.938531 180.933533A254.198234 254.198234 0 0 0 948.096738 586.885224z m-180.922872 372.848243c-105.81376 0-191.904048-86.090288-191.904048-191.904048s86.090288-191.904048 191.904048-191.904048 191.904048 86.090288 191.904048 191.904048-86.090288 191.904048-191.904048 191.904048z"  /><path d="M862.997954 704.15992h-37.474596l30.693987-30.693986a31.984008 31.984008 0 0 0 0-45.236049 31.984008 31.984008 0 0 0-45.236049 0L767.04593 672.175912l-43.935365-43.935366a31.984008 31.984008 0 0 0-45.236049 0 31.984008 31.984008 0 0 0 0 45.236049L708.568502 704.15992H671.093906a31.984008 31.984008 0 0 0-31.984008 31.984008 31.984008 31.984008 0 0 0 31.984008 31.984008h63.968016v31.984008h-63.968016a31.984008 31.984008 0 0 0-31.984008 31.984008 31.984008 31.984008 0 0 0 31.984008 31.984008h63.968016v41.57921a31.984008 31.984008 0 0 0 31.984008 31.984008 31.984008 31.984008 0 0 0 31.984008-31.984008v-41.57921h63.968016a31.984008 31.984008 0 0 0 31.984008-31.984008 31.984008 31.984008 0 0 0-31.984008-31.984008h-63.968016v-31.984008h63.968016a31.984008 31.984008 0 0 0 31.984008-31.984008 31.984008 31.984008 0 0 0-31.984008-31.984008zM416.405251 577.183408h-255.872064a32.07996 32.07996 0 0 0-31.984008 31.984008 32.07996 32.07996 0 0 0 31.984008 31.984008h255.872064a32.07996 32.07996 0 0 0 31.984008-31.984008 32.07996 32.07996 0 0 0-31.984008-31.984008zM608.192024 385.695152H160.415912a32.07996 32.07996 0 0 0-31.984008 31.984008 32.07996 32.07996 0 0 0 31.984008 31.984008h447.776112a32.07996 32.07996 0 0 0 31.984008-31.984008 32.07996 32.07996 0 0 0-31.984008-31.984008zM640.176032 224.71964a32.07996 32.07996 0 0 0-31.984008-31.984008H160.415912a32.07996 32.07996 0 0 0-31.984008 31.984008 32.07996 32.07996 0 0 0 31.984008 31.984008h447.776112a32.07996 32.07996 0 0 0 31.984008-31.984008z"  /></svg>