<?xml version="1.0" standalone="no"?><!DOCTYPE svg PUBLIC "-//W3C//DTD SVG 1.1//EN" "http://www.w3.org/Graphics/SVG/1.1/DTD/svg11.dtd"><svg class="icon" width="48px" height="48.00px" viewBox="0 0 1024 1024" version="1.1" xmlns="http://www.w3.org/2000/svg"><path d="M617.328 75.966c30.27 5.237 59.791 13.91 88.286 25.961 48.418 20.477 91.915 49.807 129.283 87.175s66.698 80.866 87.176 129.284c12.051 28.495 20.724 58.016 25.961 88.286L617.328 406.672 617.328 75.966M547.328 0l0 476.672L1024 476.672C1024 213.39 810.61 0 547.328 0L547.328 0zM512 512 512 70.599l-70.599 1.82C194.674 90.51 0 295.993 0 547.328 0 810.609 213.39 1024 476.673 1024c251.392 0 456.761-194.674 474.965-441.401L953.401 512 512 512zM476.673 953.401c-224.257 0-406.073-181.817-406.073-406.073 0-212.366 163.101-386.39 370.802-404.31l0 439.58 439.523 0C863.061 790.357 689.039 953.401 476.673 953.401z" /></svg>