<?xml version="1.0" standalone="no"?><!DOCTYPE svg PUBLIC "-//W3C//DTD SVG 1.1//EN" "http://www.w3.org/Graphics/SVG/1.1/DTD/svg11.dtd"><svg class="icon" width="48px" height="48.00px" viewBox="0 0 1024 1024" version="1.1" xmlns="http://www.w3.org/2000/svg"><path d="M831.985 767.996H575.998v64.006h255.988v-64.006zM448.002 576h-255.98v64h255.979v-64z m547.844-419.873a95.338 95.338 0 0 0-67.873-28.131h-127.99V0h-63.996v26.323a32.193 32.193 0 0 0-0.512 5.679v95.994H320.012V0h-63.994V127.996H96.026c-53.019 0-95.994 42.983-95.994 96.002v704c0 53.021 42.975 96.002 95.994 96.002h831.947c53.019 0 95.994-42.981 95.994-96.002v-704a95.382 95.382 0 0 0-28.121-67.871z m-35.873 771.871c0 17.676-14.326 32.002-32 32.002H96.026c-17.674 0-31.998-14.326-31.998-32.002V447.996h895.945v480.002z m0-605.44v61.438H64.029V223.998c0-17.67 14.324-31.996 31.998-31.996h159.992v95.994h63.994v-95.994h415.463V256c0 1.941-0.027 31.996-0.027 31.996h64.535v-95.994h127.99c17.674 0 32 14.326 32 31.996v98.56zM831.985 576H575.998v64h255.988v-64zM448.002 767.996h-255.98v64.006h255.979v-64.006z" /></svg>