<?xml version="1.0" standalone="no"?><!DOCTYPE svg PUBLIC "-//W3C//DTD SVG 1.1//EN" "http://www.w3.org/Graphics/SVG/1.1/DTD/svg11.dtd"><svg class="icon" width="48px" height="42.85px" viewBox="0 0 1147 1024" version="1.1" xmlns="http://www.w3.org/2000/svg"><path d="M949.541949 999.448215c-16.484449 0-29.901607-13.57411-29.901607-30.25587V360.765492l-350.594999-268.222081-351.801288 269.15034v607.503078c0 16.68176-13.417158 30.25587-29.906091 30.255871-16.488934 0-29.906092-13.57411-29.906092-30.255871V407.451999l-104.364143 79.843749a29.60564 29.60564 0 0 1-18.134688 6.15252 29.740171 29.740171 0 0 1-23.79393-11.735529 29.946451 29.946451 0 0 1 5.587493-41.924134L550.870296 31.143771a29.659453 29.659453 0 0 1 18.170562-6.152521c6.627861 0 12.910427 2.130063 18.175047 6.152521l543.251395 415.613505a29.699812 29.699812 0 0 1 11.470953 19.802864 29.67739 29.67739 0 0 1-5.892429 22.116786 29.70878 29.70878 0 0 1-23.784961 11.735529 29.610125 29.610125 0 0 1-18.134688-6.157005l-114.678135-87.73171v562.668605c0 16.68176-13.417158 30.25587-29.906091 30.25587z"  /><path d="M381.980924 719.974916c-11.941809 0-21.300635-9.488872-21.300635-21.605571v-16.610011c0-12.112214 9.354342-21.601086 21.300635-21.601086h372.91358c11.941809 0 21.300635 9.488872 21.300635 21.601086v16.610011c0 12.116698-9.354342 21.60557-21.300635 21.605571H381.980924zM381.980924 542.125824c-11.941809 0-21.300635-9.488872-21.300635-21.60557v-16.605527c0-12.112214 9.354342-21.601086 21.300635-21.601086h372.91358c11.941809 0 21.300635 9.488872 21.300635 21.601086v16.605527c0 12.116698-9.354342 21.60557-21.300635 21.60557H381.980924z"  /></svg>