<?xml version="1.0" standalone="no"?><!DOCTYPE svg PUBLIC "-//W3C//DTD SVG 1.1//EN" "http://www.w3.org/Graphics/SVG/1.1/DTD/svg11.dtd"><svg class="icon" width="48px" height="48.00px" viewBox="0 0 1024 1024" version="1.1" xmlns="http://www.w3.org/2000/svg"><path d="M512 0C230.4 0 0 230.4 0 512s230.4 512 512 512 512-230.4 512-512S793.6 0 512 0z m0 955.733333C268.8 955.733333 68.266667 755.2 68.266667 512S268.8 68.266667 512 68.266667 955.733333 268.8 955.733333 512 755.2 955.733333 512 955.733333z"  /><path d="M763.733333 349.866667l-315.733333 315.733333-183.466667-183.466667c-12.8-12.8-34.133333-12.8-46.933333 0-12.8 12.8-12.8 34.133333 0 46.933334l204.8 204.8c8.533333 8.533333 17.066667 8.533333 25.6 8.533333 8.533333 0 17.066667-4.266667 25.6-8.533333l341.333333-341.333334c12.8-12.8 12.8-34.133333 0-46.933333-17.066667-8.533333-38.4-8.533333-51.2 4.266667z"  /></svg>