<?xml version="1.0" standalone="no"?><!DOCTYPE svg PUBLIC "-//W3C//DTD SVG 1.1//EN" "http://www.w3.org/Graphics/SVG/1.1/DTD/svg11.dtd"><svg class="icon" width="48px" height="48.00px" viewBox="0 0 1024 1024" version="1.1" xmlns="http://www.w3.org/2000/svg"><path d="M388.292525 546.271246c-0.413737 0.55165-0.861953 1.1033-1.034343 1.82734l-33.064512 121.190572c-1.930774 7.068013 0.034478 14.653199 5.275152 20.031785 3.896027 3.827071 9.067744 5.930236 14.549764 5.930235 1.82734 0 3.620202-0.206869 5.413064-0.689562l120.328619-32.823165c0.206869 0 0.275825 0.172391 0.448216 0.172391 1.379125 0 2.723771-0.517172 3.758114-1.551515l321.749765-321.715287c9.550438-9.584916 14.791111-22.617643 14.791111-36.788148 0-16.066801-6.826667-32.133603-18.756095-44.028552l-30.375218-30.444175c-11.929428-11.929428-27.996229-18.756094-44.063031-18.756094-14.170505 0-27.203232 5.240673-36.788148 14.791111l-321.715286 321.81872c-0.344781 0.310303-0.241347 0.758519-0.482694 1.1033z m405.910842-239.17468l-31.961212 31.926734-51.820606-52.648081 31.512996-31.512997c4.964848-4.999327 14.618721-4.275286 20.342088 1.482559l30.409697 30.444175c3.171987 3.171987 4.964848 7.378316 4.964848 11.550169-0.034478 3.413333-1.241212 6.516364-3.482289 8.757441zM445.526195 551.339529l232.175623-232.210101 51.820606 52.682559-231.761885 231.727407-52.268822-52.199865z m-42.304646 94.125252l16.790842-61.577912 44.752592 44.752592-61.543434 16.82532z m411.358384-210.902626c-12.170774 0-22.169428 9.895219-22.203906 22.238384v299.959596c0 15.72202-12.756902 28.513401-28.513401 28.5134H256.482694c-15.72202 0-28.547879-12.756902-28.547879-28.5134V267.170909c0-15.756498 12.825859-28.547879 28.547879-28.547879h326.783569c12.239731 0 22.169428-9.929697 22.169427-22.203905 0-12.239731-9.929697-22.203906-22.169427-22.203906H253.103838c-38.339663 0-69.542357 31.202694-69.542357 69.542357v496.312458c0 38.374141 31.202694 69.542357 69.542357 69.542357h514.137643c38.374141 0 69.576835-31.168215 69.576835-69.542357v-303.476364c-0.034478-12.205253-9.998653-22.100471-22.169427-22.100471z" /></svg>