<?xml version="1.0" standalone="no"?><!DOCTYPE svg PUBLIC "-//W3C//DTD SVG 1.1//EN" "http://www.w3.org/Graphics/SVG/1.1/DTD/svg11.dtd"><svg class="icon" width="48px" height="48.00px" viewBox="0 0 1024 1024" version="1.1" xmlns="http://www.w3.org/2000/svg"><path d="M1024 595.2L883.2 384H704V128H384v64h256v256h204.8L960 620.8V832h-70.4c-12.8-70.4-76.8-128-153.6-128s-140.8 57.6-153.6 128H441.6c-12.8-70.4-76.8-128-153.6-128s-140.8 57.6-153.6 128H64V448H0v448h134.4c12.8 70.4 76.8 128 153.6 128s140.8-57.6 153.6-128H576c12.8 70.4 76.8 128 153.6 128s140.8-57.6 153.6-128H1024V595.2zM288 960c-51.2 0-96-44.8-96-96s44.8-96 96-96 96 44.8 96 96-44.8 96-96 96z m448 0c-51.2 0-96-44.8-96-96s44.8-96 96-96 96 44.8 96 96-44.8 96-96 96z"  /><path d="M0 128h320v64H0z m128 128h192v64H128z m64 128h128v64H192z"  /></svg>