<?xml version="1.0" standalone="no"?><!DOCTYPE svg PUBLIC "-//W3C//DTD SVG 1.1//EN" "http://www.w3.org/Graphics/SVG/1.1/DTD/svg11.dtd"><svg class="icon" width="48px" height="48.00px" viewBox="0 0 1024 1024" version="1.1" xmlns="http://www.w3.org/2000/svg"><path d="M511.994112 51.199411a460.794701 460.794701 0 0 1 399.355407 230.397351A460.794701 460.794701 0 0 1 511.994112 972.788813a460.794701 460.794701 0 0 1-399.355407-230.397351A460.794701 460.794701 0 0 1 511.994112 51.199411m0-51.199411a511.994112 511.994112 0 1 0 443.898895 255.997056A511.994112 511.994112 0 0 0 511.994112 0z"  /><path d="M460.794701 583.673288V474.106548c54.271376 0 192.509786 0 192.509786 150.014275a159.742163 159.742163 0 0 1-122.878587 157.694186 237.565268 237.565268 0 0 0 200.189698-238.589256c0-227.325386-231.933333-229.373362-269.308903-229.373362V221.181456L281.596762 402.939366z"  /></svg>