<?xml version="1.0" standalone="no"?><!DOCTYPE svg PUBLIC "-//W3C//DTD SVG 1.1//EN" "http://www.w3.org/Graphics/SVG/1.1/DTD/svg11.dtd"><svg class="icon" width="48px" height="48.00px" viewBox="0 0 1024 1024" version="1.1" xmlns="http://www.w3.org/2000/svg"><path d="M749.548 674.286l0.028-0.166 0.245-0.423 0.103 0.315z"  /><path d="M724.868 661.858l0.025-0.148 0.219-0.379 0.092 0.282z"  /><path d="M862.956 804.314c0-60.257-41.714-92.702-41.714-92.702-84.762-74.164-83.438-283.419-83.438-283.419 0-161.364-144.105-208.854-151.96-211.324-5.842-35.408-36.33-62.501-73.394-62.501-36.96 0-67.393 26.928-73.358 62.184l-0.262 0.077c-152.636 51.65-152.468 211.564-152.468 211.564 0 222-80.955 283.086-80.955 283.086-42.712 37.745-44.365 91.049-44.365 91.049 11.259 83.103 75.158 75.819 75.158 75.819h201.393c-0.018 0.604-0.181 1.17-0.181 1.776 0 41.443 33.596 75.039 75.039 75.039s75.035-33.596 75.035-75.039c0-0.607-0.164-1.173-0.176-1.776h199.666c76.973 0.001 75.979-73.833 75.979-73.833zM511.776 909.86c-17.294 0-31.312-14.019-31.312-31.313 0-0.253 0.068-0.49 0.076-0.741h62.474c0.005 0.252 0.074 0.488 0.074 0.741-0.001 17.294-14.018 31.313-31.311 31.313zM791.662 824.063h-559.325c0 0-41.699-11.746-6.46-59.199 15.561-10.261 107.418-95.925 112.055-338.28 0 0 4.228-167.026 174.067-170.549 0 0 170.555-6.342 176.898 170.549 0 0-3.254 235.641 110.646 338.28 0 0.001 39.465 37.117-7.882 59.199z"  /></svg>