<?xml version="1.0" standalone="no"?><!DOCTYPE svg PUBLIC "-//W3C//DTD SVG 1.1//EN" "http://www.w3.org/Graphics/SVG/1.1/DTD/svg11.dtd"><svg class="icon" width="48px" height="48.00px" viewBox="0 0 1024 1024" version="1.1" xmlns="http://www.w3.org/2000/svg"><path d="M512 224h-64v320h320v-64H557.3l339.9-339.9L852 94.8l-340 340z"  /><path d="M864 513.2V848c0 26.5-18.8 48-41.8 48H201.8c-23 0-41.8-21.5-41.8-48V178.4c0-26.5 18.8-48 41.8-48H512v-64H201.8c-58.3 0-105.8 50.2-105.8 112V848c0 61.8 47.5 112 105.8 112h620.4c58.3 0 105.8-50.2 105.8-112V513.2h-64z"  /></svg>