<?xml version="1.0" standalone="no"?><!DOCTYPE svg PUBLIC "-//W3C//DTD SVG 1.1//EN" "http://www.w3.org/Graphics/SVG/1.1/DTD/svg11.dtd"><svg class="icon" width="48px" height="48.00px" viewBox="0 0 1024 1024" version="1.1" xmlns="http://www.w3.org/2000/svg"><path d="M389.12 245.76v-136.533333s0-6.826667-13.653333-11.377778c-11.377778-2.275556-22.755556 4.551111-22.755556 4.551111C348.16 109.226667 113.777778 273.066667 113.777778 273.066667s-22.755556 11.377778-22.755556 34.133333 15.928889 31.857778 15.928889 31.857778l238.933333 163.84s15.928889 4.551111 27.306667 2.275555c13.653333-2.275556 13.653333-13.653333 13.653333-13.653333V364.088889h232.106667s184.32 25.031111 184.32 93.297778c0 0-2.275556-213.902222-188.871111-213.902223m13.653333 546.133334v134.257778s2.275556 9.102222 18.204445 9.102222c9.102222 2.275556 15.928889-4.551111 18.204444-4.551111 4.551111-2.275556 238.933333-168.391111 238.933334-168.391111s22.755556-11.377778 22.755555-34.133334-15.928889-31.857778-15.928889-31.857778l-238.933333-163.84s-9.102222-6.826667-22.755556-2.275555c-15.928889 4.551111-18.204444 13.653333-18.204444 13.653333v127.431111H393.671111s-184.32-25.031111-184.32-93.297777c0 0 2.275556 213.902222 188.871111 213.902222"  /></svg>