<?xml version="1.0" standalone="no"?><!DOCTYPE svg PUBLIC "-//W3C//DTD SVG 1.1//EN" "http://www.w3.org/Graphics/SVG/1.1/DTD/svg11.dtd"><svg class="icon" width="48px" height="48.00px" viewBox="0 0 1024 1024" version="1.1" xmlns="http://www.w3.org/2000/svg"><path d="M748.2 961.5H268.3c-62.9 0-111.6-71-111.6-132V169.3c0-60.2 48-105.6 111.6-105.6h349.8L867 290.4v539.1c0 59.4-54.8 132-118.8 132z m-479.9-845c-29.2 0-58.8 18.1-58.8 52.8v660.2c0 34.6 28.5 79.2 58.8 79.2h479.9c29.6 0 65.9-43.7 65.9-79.2V313.8L597.7 116.5H268.3z"  /><path d="M676 459.8H340.5c-14.6 0-26.4-11.8-26.4-26.4 0-14.6 11.8-26.4 26.4-26.4H676c14.6 0 26.4 11.8 26.4 26.4 0 14.6-11.8 26.4-26.4 26.4zM676 591.8H340.5c-14.6 0-26.4-11.8-26.4-26.4 0-14.6 11.8-26.4 26.4-26.4H676c14.6 0 26.4 11.8 26.4 26.4 0 14.6-11.8 26.4-26.4 26.4zM676 723.9H340.5c-14.6 0-26.4-11.8-26.4-26.4 0-14.6 11.8-26.4 26.4-26.4H676c14.6 0 26.4 11.8 26.4 26.4 0 14.5-11.8 26.4-26.4 26.4zM833.1 326.5H654.2c-42.5 0-77.1-32.8-77.1-73.1V90.1H630v163.3c0 11.2 10.9 20.2 24.3 20.2h178.9v52.9z"  /></svg>