<?xml version="1.0" standalone="no"?><!DOCTYPE svg PUBLIC "-//W3C//DTD SVG 1.1//EN" "http://www.w3.org/Graphics/SVG/1.1/DTD/svg11.dtd"><svg class="icon" width="48px" height="48.00px" viewBox="0 0 1024 1024" version="1.1" xmlns="http://www.w3.org/2000/svg"><path d="M532.252444 170.666667l-17.521778 0c-9.363911 0-16.952889-7.588978-16.952889-16.952889l0-0.568889c0-21.742933-17.624178-39.367111-39.367111-39.367111l-0.910222 0c-21.742933 0-39.367111 17.624178-39.367111 39.367111l0 0.568889c0 9.363911-7.588978 16.952889-16.952889 16.952889l-17.521778 0c-18.659556 0-33.792 15.132444-33.792 33.792l0 0.682667c0 18.659556 15.132444 33.792 33.792 33.792l148.593778 0c18.659556 0 33.792-15.132444 33.792-33.792l0-0.682667C566.044444 185.799111 550.912 170.666667 532.252444 170.666667zM457.955556 170.666667c-9.4208 0-17.066667-7.645867-17.066667-17.066667s7.645867-17.066667 17.066667-17.066667 17.066667 7.645867 17.066667 17.066667S467.376356 170.666667 457.955556 170.666667zM533.936356 830.577778 247.466667 830.577778c-25.133511 0-45.511111-20.3776-45.511111-45.511111L201.955556 238.933333c0-25.133511 20.3776-45.511111 34.133333-45.511111l92.205511 0c-0.773689 3.777422-1.183289 7.691378-1.183289 11.719111 0 31.175111 25.361067 56.547556 56.547556 56.547556l148.593778 0c31.186489 0 56.547556-25.361067 56.547556-57.230222 0-3.777422-0.4096-7.463822-1.115022-11.036444l69.381689 0c36.511289 0 56.888889 20.3776 56.888889 45.511111l0 341.9136C710.178133 580.608 706.423467 580.266667 702.577778 580.266667c-15.735467 0-30.936178 2.218667-45.511111 5.996089L657.066667 318.577778l-398.222222 0 0 455.111111 262.269156 0C522.353778 793.691022 526.722844 812.828444 533.936356 830.577778zM702.577778 614.4c-81.692444 0-147.911111 66.218667-147.911111 147.911111s66.218667 147.911111 147.911111 147.911111 147.911111-66.218667 147.911111-147.911111S784.270222 614.4 702.577778 614.4zM799.232 731.921067l-91.022222 102.4C703.726933 839.361422 697.480533 841.955556 691.188622 841.955556c-4.994844 0-10.012444-1.6384-14.210844-4.983467l-56.888889-45.511111c-9.807644-7.839289-11.400533-22.163911-3.549867-31.982933 7.839289-9.819022 22.175289-11.411911 31.982933-3.549867l40.015644 32.005689 76.674844-86.254933c8.339911-9.386667 22.7328-10.24 32.119467-1.888711S807.583289 722.523022 799.232 731.921067z" /></svg>