<?xml version="1.0" encoding="utf-8"?>
<!-- Generator: Adobe Illustrator 21.0.0, SVG Export Plug-In . SVG Version: 6.00 Build 0)  -->
<svg version="1.1" id="图层_1" xmlns="http://www.w3.org/2000/svg" xmlns:xlink="http://www.w3.org/1999/xlink" x="0px" y="0px"
	 viewBox="0 0 48 48" style="enable-background:new 0 0 48 48;" xml:space="preserve">
<style type="text/css">
	.st0{fill:#333333;}
</style>
<path class="st0" d="M35.4,42.3H12.6c-2.5,0-4.6-2-4.6-4.6V14.9c0-2.5,2-4.6,4.6-4.6H16V8h3.1c1-1.4,2.8-2.3,4.9-2.3
	s3.9,0.9,4.9,2.3H32v2.3h3.4c2.5,0,4.6,2,4.6,4.6v22.9C40,40.2,38,42.3,35.4,42.3z M29.7,10.3h-2.5C27.2,9,25.8,8,24,8
	c-1.8,0-3.2,1-3.2,2.3h-2.5v4.6h11.4C29.7,14.9,29.7,10.3,29.7,10.3z M37.7,14.9c0-1.3-1-2.3-2.3-2.3H32v4.6H16v-4.6h-3.4
	c-1.3,0-2.3,1-2.3,2.3v22.9c0,1.3,1,2.3,2.3,2.3h22.9c1.3,0,2.3-1,2.3-2.3L37.7,14.9L37.7,14.9z M32,35.4H16c-0.6,0-1.1-0.5-1.1-1.1
	c0-0.6,0.5-1.1,1.1-1.1h16c0.6,0,1.1,0.5,1.1,1.1C33.1,34.9,32.6,35.4,32,35.4z M32,29.7H16c-0.6,0-1.1-0.5-1.1-1.1s0.5-1.1,1.1-1.1
	h16c0.6,0,1.1,0.5,1.1,1.1C33.1,29.2,32.6,29.7,32,29.7z M32,24H16c-0.6,0-1.1-0.5-1.1-1.1s0.5-1.1,1.1-1.1h16
	c0.6,0,1.1,0.5,1.1,1.1S32.6,24,32,24z"/>
</svg>
