<?xml version="1.0" standalone="no"?><!DOCTYPE svg PUBLIC "-//W3C//DTD SVG 1.1//EN" "http://www.w3.org/Graphics/SVG/1.1/DTD/svg11.dtd"><svg class="icon" width="48px" height="48.00px" viewBox="0 0 1024 1024" version="1.1" xmlns="http://www.w3.org/2000/svg"><path d="M165.8 811c-11 0-20-9-20-20v-558c0-11 9-19 20-19h240.6l111 87H861c11 0 20 9 20 20v319h0.1c0.5 10.6 9.2 19 19.9 19s19.4-8.4 19.9-19h0.1v-319c0-33.1-26.9-60-60-60h-329.6l-111-88H165.8c-33.1 0-59.8 26.9-59.8 60v558c0 33.1 26.7 60 59.8 60H706c11 0 20-9 20-20s-9-20-20-20"  /><path d="M901 831m-20 0a20 20 0 1 0 40 0 20 20 0 1 0-40 0Z"  /><path d="M807 831m-20 0a20 20 0 1 0 40 0 20 20 0 1 0-40 0Z"  /><path d="M901 732.5m-20 0a20 20 0 1 0 40 0 20 20 0 1 0-40 0Z"  /><path d="M512 713c-11 0-20-9-20-20v-320c0-11 9-20 20-20s20 9 20 20v320c0 11-9 20-20 20z"  /><path d="M497.9 753.1c-7.8-7.8-7.8-20.5 0-28.3l169.7-169.7c7.8-7.8 20.5-7.8 28.3 0 7.8 7.8 7.8 20.5 0 28.3l-169.8 169.7c-7.8 7.9-20.4 7.9-28.2 0z"  /><path d="M526.1 753.1c-7.8 7.8-20.5 7.8-28.3 0L328.2 583.4c-7.8-7.8-7.8-20.5 0-28.3 7.8-7.8 20.5-7.8 28.3 0l169.7 169.7c7.8 7.9 7.8 20.5-0.1 28.3z"  /></svg>