<?xml version="1.0" standalone="no"?><!DOCTYPE svg PUBLIC "-//W3C//DTD SVG 1.1//EN" "http://www.w3.org/Graphics/SVG/1.1/DTD/svg11.dtd"><svg class="icon" width="48px" height="48.00px" viewBox="0 0 1024 1024" version="1.1" xmlns="http://www.w3.org/2000/svg"><path d="M354.816 984.576c0 21.504-17.408 39.424-39.424 39.424H40.96c-21.504 0-39.424-17.408-39.424-39.424V39.936C1.536 18.432 18.944 0.512 40.96 0.512h595.456c10.24 0 20.48 4.096 27.648 11.264l152.576 152.576c7.168 7.168 11.264 17.408 11.264 27.648v169.984c0 21.504-17.408 39.424-39.424 39.424-21.504 0-39.424-17.408-39.424-39.424v-153.6l-130.048-129.536H80.384v866.304h235.008c22.016 0.512 39.424 17.92 39.424 39.424z m651.776 25.088c0 0.512 0 0.512 0 0-15.872 15.36-40.448 15.36-55.296 0l-110.592-110.592c-37.888 26.112-83.968 41.984-133.632 41.984-130.048 0-235.008-105.472-235.008-235.008 0-130.048 105.472-235.008 235.008-235.008 130.048 0 235.008 105.472 235.008 235.008 0 51.712-16.896 99.84-45.056 138.752l110.08 110.08c14.848 14.848 14.848 39.936-0.512 54.784z m-142.848-304.128c0-86.528-70.144-156.672-156.672-156.672-86.528 0-156.672 70.144-156.672 156.672 0 86.528 70.144 156.672 156.672 156.672 86.016 0.512 156.672-70.144 156.672-156.672zM359.936 398.848H203.264c-21.504 0-39.424 17.408-39.424 39.424 0 21.504 17.408 39.424 39.424 39.424h156.672c21.504 0 39.424-17.408 39.424-39.424 0-21.504-17.92-39.424-39.424-39.424zM203.264 242.176c-21.504 0-39.424 17.408-39.424 39.424 0 21.504 17.408 39.424 39.424 39.424H517.12c21.504 0 39.424-17.408 39.424-39.424 0-21.504-17.408-39.424-39.424-39.424H203.264z m156.672 313.856H203.264c-21.504 0-39.424 17.408-39.424 39.424 0 21.504 17.408 39.424 39.424 39.424h156.672c21.504 0 39.424-17.408 39.424-39.424 0-22.016-17.92-39.424-39.424-39.424z"  /></svg>