<?xml version="1.0" standalone="no"?><!DOCTYPE svg PUBLIC "-//W3C//DTD SVG 1.1//EN" "http://www.w3.org/Graphics/SVG/1.1/DTD/svg11.dtd"><svg class="icon" width="48px" height="48.00px" viewBox="0 0 1024 1024" version="1.1" xmlns="http://www.w3.org/2000/svg"><path d="M901.12 787.456l-324.608 187.904c-11.264 6.656-23.552 11.264-36.352 14.336v-459.776l417.792-231.936c4.608 13.312 7.168 27.136 7.168 41.472v337.408c0 45.568-24.576 87.552-64 110.592z m-386.048-288.256L85.504 261.632c3.584-4.608 7.168-8.704 10.752-12.8l0.512-1.024c7.68-7.68 16.384-14.336 25.6-19.968l299.52-173.056c55.296-32.256 123.904-32.256 179.2-0.512l273.408 161.792c23.04 13.312 47.104 28.16 59.392 39.936l8.704 11.264 0.512 0.512c2.56 4.096 5.12 8.192 7.68 12.8l-435.712 218.624zM942.08 266.752l0.512 1.024c0-0.512-0.512-0.512-0.512-1.024zM202.24 373.76v240.64l174.08 97.28 0.512-242.688L494.08 532.48v459.264l-1.536-0.512c-15.872-2.56-30.72-7.68-44.544-15.36l-325.632-188.416c-39.424-23.04-63.488-65.024-63.488-110.592V339.968c0-14.336 2.56-28.16 7.168-41.984L202.24 373.76z"  /></svg>