<?xml version="1.0" standalone="no"?><!DOCTYPE svg PUBLIC "-//W3C//DTD SVG 1.1//EN" "http://www.w3.org/Graphics/SVG/1.1/DTD/svg11.dtd"><svg class="icon" width="48px" height="48.00px" viewBox="0 0 1024 1024" version="1.1" xmlns="http://www.w3.org/2000/svg"><path d="M819.2 180.224h-143.701333a118.784 118.784 0 0 0-116.053334-94.890667h-94.890666a118.784 118.784 0 0 0-116.053334 94.890667H204.8a118.784 118.784 0 0 0-119.466667 118.442667 23.552 23.552 0 0 0 23.552 23.552H204.8v521.557333a94.890667 94.890667 0 0 0 93.866667 94.890667h426.666666A94.890667 94.890667 0 0 0 819.2 843.776V322.218667h94.890667a23.552 23.552 0 0 0 23.552-23.552A118.784 118.784 0 0 0 819.2 180.224zM464.554667 132.778667h94.890666a71.338667 71.338667 0 0 1 68.266667 47.445333h-230.058667a71.338667 71.338667 0 0 1 66.901334-47.445333z m307.2 710.997333a47.445333 47.445333 0 0 1-47.445334 47.445333H298.666667a47.445333 47.445333 0 0 1-47.445334-47.445333V322.218667h521.557334zM819.2 275.114667H136.533333a71.338667 71.338667 0 0 1 68.266667-47.445334h614.4a71.338667 71.338667 0 0 1 68.266667 47.445334z"  /><path d="M654.336 796.330667a23.552 23.552 0 0 0 23.552-23.552v-331.776a23.552 23.552 0 1 0-47.445333 0v331.776a23.552 23.552 0 0 0 23.552 23.552zM512 796.330667a23.552 23.552 0 0 0 23.552-23.552v-331.776a23.552 23.552 0 1 0-47.445333 0v331.776a23.552 23.552 0 0 0 23.552 23.552zM369.664 796.330667a23.552 23.552 0 0 0 23.552-23.552v-331.776a23.552 23.552 0 1 0-47.445333 0v331.776a23.552 23.552 0 0 0 23.552 23.552z"  /></svg>