<?xml version="1.0" standalone="no"?><!DOCTYPE svg PUBLIC "-//W3C//DTD SVG 1.1//EN" "http://www.w3.org/Graphics/SVG/1.1/DTD/svg11.dtd"><svg class="icon" width="48px" height="48.00px" viewBox="0 0 1024 1024" version="1.1" xmlns="http://www.w3.org/2000/svg"><path d="M590.4 904.8v-2.4c0-21.6-17.6-27.2-38.4-27.2H172V161.6h375.2c21.6 0 38.4-12 38.4-32.8v3.2c0-21.6-17.6-33.6-38.4-33.6H145.6c-21.6 0-36.8 17.6-36.8 38.4v763.2c0 20.8 17.6 37.6 38.4 37.6H552c20.8 0.8 38.4-11.2 38.4-32.8z m110.4-552l135.2 134.4h-432c-21.6 0-40 7.2-40 28.8s18.4 34.4 40 34.4h430.4L696 694.4c-15.2 15.2-15.2 29.6 0 45.6 15.2 15.2 40.8 9.6 56.8-5.6l182.4-188c8.8-8.8 12.8-20.8 11.2-32-0.8-8.8-4.8-17.6-11.2-24L746.4 302.4c-15.2-15.2-40.8-15.2-56.8 0s-4.8 35.2 11.2 50.4z"  /></svg>