<?xml version="1.0" standalone="no"?><!DOCTYPE svg PUBLIC "-//W3C//DTD SVG 1.1//EN" "http://www.w3.org/Graphics/SVG/1.1/DTD/svg11.dtd"><svg class="icon" width="48px" height="48.00px" viewBox="0 0 1024 1024" version="1.1" xmlns="http://www.w3.org/2000/svg"><path d="M737.28 860.16 737.28 860.16l0-327.68L327.68 532.48l0 327.68L737.28 860.16M737.28 901.07904 327.68 901.07904c-22.60992 0-41.00096-18.35008-41.00096-40.96l0-327.68c0-22.60992 18.39104-40.96 41.00096-40.96L737.28 491.47904c22.60992 0 40.96 18.35008 40.96 40.96l0 327.68C778.19904 882.76992 759.88992 901.07904 737.28 901.07904L737.28 901.07904 737.28 901.07904z"  /><path d="M327.68 286.72 327.68 163.84 737.28 163.84l0 122.88 40.96 0L778.24 163.84c0-22.60992-18.35008-40.96-40.96-40.96L327.68 122.88C305.07008 122.88 286.67904 141.23008 286.67904 163.84l0 122.88L327.68 286.72z"  /><path d="M817.88928 245.71904 245.76 245.71904c-67.82976 0-122.83904 55.05024-122.83904 122.88l0 286.72c0 45.21984 36.6592 81.87904 81.87904 81.87904l81.87904 0 0-40.96L204.8 696.23808c-22.60992 0-40.96-18.35008-40.96-40.96L163.84 368.64C163.84 323.46112 200.58112 286.72 245.76 286.72l572.17024 0C863.06816 286.72 899.85024 323.46112 899.85024 368.64l0 286.72c0 22.60992-18.39104 40.96-40.96 40.96l-80.6912 0 0 40.96 80.6912 0c45.21984 0 81.87904-36.6592 81.87904-81.87904L940.76928 368.64C940.81024 300.76928 885.80096 245.71904 817.88928 245.71904z"  /></svg>