<?xml version="1.0" standalone="no"?><!DOCTYPE svg PUBLIC "-//W3C//DTD SVG 1.1//EN" "http://www.w3.org/Graphics/SVG/1.1/DTD/svg11.dtd"><svg class="icon" width="48px" height="48.00px" viewBox="0 0 1024 1024" version="1.1" xmlns="http://www.w3.org/2000/svg"><path d="M908.864 901.461333a38.229333 38.229333 0 0 1-37.888-38.378666 38.272 38.272 0 0 1 38.101333-38.208 38.293333 38.293333 0 0 1 0 76.586666h-0.213333z m-107.328-0.170666c-10.218667 0-19.776-3.968-26.986667-11.157334s-11.157333-16.789333-11.136-27.008a38.186667 38.186667 0 0 1 65.109334-26.965333c7.210667 7.210667 11.157333 16.789333 11.136 27.008a37.973333 37.973333 0 0 1-38.122667 38.122667z m-654.570667 0a66.389333 66.389333 0 0 1-66.325333-66.325334V148.373333a66.389333 66.389333 0 0 1 66.325333-66.282666h313.152c8.32 0.064 16.341333 2.986667 22.677334 8.213333l92.330666 74.176h301.866667a66.368 66.368 0 0 1 66.282667 66.304v432.938667c0 19.498667-16.448 35.968-35.968 35.968a36.437333 36.437333 0 0 1-35.946667-35.968l0.021333-374.954667h0.704v-51.648H562.730667a35.968 35.968 0 0 1-22.698667-8.234667l-92.330667-74.176h-294.4l-0.064 205.248h-0.682666v469.418667h549.568c19.498667 0 35.968 16.448 35.968 35.968s-16.448 35.968-35.968 35.968H146.965333z m761.898667-91.626667a38.186667 38.186667 0 0 1-37.888-38.336 38.272 38.272 0 0 1 38.101333-38.250667 38.058667 38.058667 0 0 1 38.144 38.378667 38.293333 38.293333 0 0 1-38.144 38.208h-0.213333z"  /><path d="M512.256 708.437333a36.693333 36.693333 0 0 1-36.608-36.629333v-123.477333h-123.477333c-20.181333 0-36.608-16.426667-36.608-36.608s16.426667-36.629333 36.608-36.629334h123.477333v-123.456a36.565333 36.565333 0 0 1 35.882667-36.096h0.021333c20.501333 0 36.928 16.106667 37.333333 35.882667v123.690667h123.456a36.48 36.48 0 0 1 36.074667 35.925333c0.192 9.749333-3.413333 19.029333-10.218667 26.069333a36.266667 36.266667 0 0 1-25.664 11.242667h-123.669333v123.456a36.629333 36.629333 0 0 1-36.608 36.629333z"  /></svg>