<?xml version="1.0" standalone="no"?><!DOCTYPE svg PUBLIC "-//W3C//DTD SVG 1.1//EN" "http://www.w3.org/Graphics/SVG/1.1/DTD/svg11.dtd"><svg class="icon" width="48px" height="48.00px" viewBox="0 0 1024 1024" version="1.1" xmlns="http://www.w3.org/2000/svg"><path d="M405.333 853.333H192c-59.733 0-106.667-46.933-106.667-106.666V192c0-59.733 46.934-106.667 106.667-106.667h469.333C721.067 85.333 768 132.267 768 192v128c0 12.8-8.533 21.333-21.333 21.333S725.333 332.8 725.333 320V192c0-34.133-29.866-64-64-64H192c-34.133 0-64 29.867-64 64v554.667c0 34.133 29.867 64 64 64h213.333c12.8 0 21.334 8.533 21.334 21.333s-8.534 21.333-21.334 21.333z"  /><path d="M686.933 512C780.8 512 857.6 588.8 857.6 682.667s-76.8 170.666-170.667 170.666-170.666-76.8-170.666-170.666S593.067 512 686.933 512m0-42.667c-119.466 0-213.333 93.867-213.333 213.334S567.467 896 686.933 896s213.334-93.867 213.334-213.333-98.134-213.334-213.334-213.334z"  /><path d="M610.133 729.6L729.6 610.133c8.533-8.533 21.333-8.533 29.867 0 8.533 8.534 8.533 21.334 0 29.867L640 759.467c-8.533 8.533-21.333 8.533-29.867 0-8.533-8.534-8.533-21.334 0-29.867z"  /><path d="M729.6 759.467L610.133 640c-8.533-8.533-8.533-21.333 0-29.867 8.534-8.533 21.334-8.533 29.867 0L759.467 729.6c8.533 8.533 8.533 21.333 0 29.867-4.267 8.533-21.334 8.533-29.867 0zM580.267 298.667H281.6c-12.8 0-21.333-8.534-21.333-21.334 0-12.8 8.533-21.333 21.333-21.333h298.667c12.8 0 21.333 8.533 21.333 21.333 0 12.8-8.533 21.334-21.333 21.334zM580.267 426.667H281.6c-12.8 0-21.333-8.534-21.333-21.334 0-12.8 8.533-21.333 21.333-21.333h298.667c12.8 0 21.333 8.533 21.333 21.333 0 12.8-8.533 21.334-21.333 21.334z"  /></svg>