<?xml version="1.0" standalone="no"?><!DOCTYPE svg PUBLIC "-//W3C//DTD SVG 1.1//EN" "http://www.w3.org/Graphics/SVG/1.1/DTD/svg11.dtd"><svg class="icon" width="48px" height="48.00px" viewBox="0 0 1024 1024" version="1.1" xmlns="http://www.w3.org/2000/svg"><path d="M457.2 928.3C359 909.9 293 860.5 240.5 799.4c-26.2-30.5-44.4-70.8-58.5-107.6-14.6-38-21.9-77.9-21.9-118.6 0-41.4 7.6-82 22.7-120.6 14.6-37.3 35.7-71.8 62.7-102.6 54.3-61.8 130.1-104.7 213.4-120.8l13.2 59.5c-68.8 13.3-131.5 48.8-176.4 100-22.4 25.5-39.8 54-51.9 84.8-12.4 31.9-18.8 65.4-18.8 99.7 0 33.7 6.1 66.7 18.1 98.1 11.6 30.3 28.5 58.5 50.2 83.8 43.4 50.6 96.8 94.7 163.9 109.3v63.9z" /><path d="M457.2 98.6l172.2 176-172.2 167.8zM733.4 388.7c11.1 12.7 21 26.1 29.7 40.2 5.7 9.3 10.8 18.9 15.4 28.7h69.6c-0.6-1.6-1.2-3.3-1.9-4.9-7-17.9-15.5-35.2-25.4-51.7-10.8-17.9-23.2-34.9-37.3-50.9-20.7-23.5-44.4-44.3-70.6-61.9l-34.8 51.5c20.5 14.1 39.1 30.5 55.3 49zM687.4 803.9c-33.3 28.5-71.5 50.9-115.6 60.5v63.9c67.9-12.7 120.4-40.3 163.7-76.3l-48.1-48.1zM863.4 512.5h-66.1c4.5 19.8 6.8 40.1 6.8 60.7 0 33.7-6.1 66.7-18.1 98.1-11.6 30.2-28.4 58.3-49.9 83.4l48.9 48.9c1.2-1.4 2.5-2.8 3.7-4.2 26.2-30.5 44.4-70.8 58.5-107.6 14.6-38 21.9-77.9 21.9-118.6-0.1-20.5-2-40.7-5.7-60.7z" /></svg>