<?xml version="1.0" standalone="no"?><!DOCTYPE svg PUBLIC "-//W3C//DTD SVG 1.1//EN" "http://www.w3.org/Graphics/SVG/1.1/DTD/svg11.dtd"><svg class="icon" width="48px" height="48.00px" viewBox="0 0 1024 1024" version="1.1" xmlns="http://www.w3.org/2000/svg"><path d="M512 0C229.376 0 0 229.376 0 512s229.376 512 512 512 512-229.376 512-512S794.624 0 512 0z m0 974.848c-255.488 0-462.848-207.36-462.848-462.848S256.512 49.152 512 49.152c255.488 0 462.848 207.36 462.848 462.848s-207.36 462.848-462.848 462.848z m-98.304-306.176L243.2 498.176l-39.424 39.424 198.144 198.144 1.024-1.024 11.776 11.776 416.768-416.768-39.936-39.424-377.856 378.368z"  /></svg>