<?xml version="1.0" standalone="no"?><!DOCTYPE svg PUBLIC "-//W3C//DTD SVG 1.1//EN" "http://www.w3.org/Graphics/SVG/1.1/DTD/svg11.dtd"><svg class="icon" width="48px" height="48.00px" viewBox="0 0 1024 1024" version="1.1" xmlns="http://www.w3.org/2000/svg"><path d="M901.790122 4.093225H123.215788C57.529763 4.093225 4.093736 57.539484 4.093736 123.234719v778.568195c0 65.692165 53.436026 119.126144 119.126145 119.126144h778.571265c65.685002 0 119.117958-53.43398 119.117958-119.126144V123.234719C1020.909104 57.539484 967.47717 4.093225 901.790122 4.093225zM770.724041 80.583317v156.569941H254.302335V80.583317h516.421706zM283.415396 942.557106V623.00314h458.177164V942.557106H283.415396z m661.004639-40.753169c0 23.514553-19.123546 42.637076-42.628889 42.637076h-83.709517V610.254791c0-35.147498-28.595268-63.74072-63.741743-63.74072H270.668071c-35.150568 0-63.742766 28.593222-63.742766 63.74072V944.43999h-83.706447c-23.508413 0-42.637076-19.122523-42.637076-42.637076V123.234719c0-23.518646 19.127639-42.651402 42.632982-42.651402h54.598503v194.814987c0 21.122063 17.121959 38.245046 38.245045 38.245046h592.909752c21.126156 0 38.245046-17.122983 38.245046-38.245046V80.583317h54.571896c23.508413 0 42.62889 19.132756 42.628889 42.651402v778.567171l0.00614 0.002047z"  /></svg>