<?xml version="1.0" standalone="no"?><!DOCTYPE svg PUBLIC "-//W3C//DTD SVG 1.1//EN" "http://www.w3.org/Graphics/SVG/1.1/DTD/svg11.dtd"><svg class="icon" width="48px" height="48.00px" viewBox="0 0 1024 1024" version="1.1" xmlns="http://www.w3.org/2000/svg"><path d="M823.296 80.384h-552.96c-56.32 0-102.4 46.08-102.4 102.4v38.4h51.2v-7.68c0-56.32 25.6-81.92 81.92-81.92h491.52c56.32 0 81.92 25.6 81.92 81.92v593.92c0 56.32-25.6 81.92-81.92 81.92h-491.52c-56.32 0-81.92-25.6-81.92-81.92v-7.68h-51.2v38.4c0 56.32 46.08 102.4 102.4 102.4h552.96c56.32 0 102.4-46.08 102.4-102.4v-655.36c0-56.32-46.08-102.4-102.4-102.4z"  /><path d="M249.856 319.488h-128c-13.824 0-25.6-11.264-25.6-25.6 0-13.824 11.264-25.6 25.6-25.6h128c14.336 0 25.6 11.264 25.6 25.6s-11.264 25.6-25.6 25.6zM249.856 752.64h-128c-13.824 0-25.6-11.264-25.6-25.6s11.264-25.6 25.6-25.6h128c14.336 0 25.6 11.264 25.6 25.6 0 13.824-11.264 25.6-25.6 25.6zM249.856 537.088h-128c-13.824 0-25.6-11.264-25.6-25.6 0-13.824 11.264-25.6 25.6-25.6h128c14.336 0 25.6 11.264 25.6 25.6s-11.264 25.6-25.6 25.6zM167.936 375.296h51.2v51.2h-51.2zM167.936 592.896h51.2v51.2h-51.2zM708.096 474.112h-286.72c-19.456 0-35.84-16.384-35.84-35.84s15.872-35.84 35.84-35.84h286.72c19.456 0 35.84 15.872 35.84 35.84 0 19.456-15.872 35.84-35.84 35.84zM708.096 618.496h-286.72c-19.456 0-35.84-15.872-35.84-35.84 0-19.456 15.872-35.84 35.84-35.84h286.72c19.456 0 35.84 16.384 35.84 35.84s-15.872 35.84-35.84 35.84z"  /><path d="M600.576 439.296v286.72c0 19.456-15.872 35.84-35.84 35.84-19.456 0-35.84-15.872-35.84-35.84v-286.72c0-19.456 15.872-35.84 35.84-35.84s35.84 15.872 35.84 35.84z"  /><path d="M534.016 466.944l-81.92-104.96c-12.288-15.36-9.216-38.4 6.144-50.176 15.36-12.288 38.4-9.216 50.176 6.144l81.92 104.96c12.288 15.36 9.216 38.4-6.144 50.176-15.36 11.776-37.888 9.216-50.176-6.144z"  /><path d="M595.456 466.944l81.92-104.96c12.288-15.36 9.216-38.4-6.144-50.176-15.36-12.288-38.4-9.216-50.176 6.144l-81.92 104.96c-12.288 15.36-9.216 38.4 6.144 50.176 15.36 11.776 37.888 9.216 50.176-6.144z"  /></svg>