<?xml version="1.0" standalone="no"?><!DOCTYPE svg PUBLIC "-//W3C//DTD SVG 1.1//EN" "http://www.w3.org/Graphics/SVG/1.1/DTD/svg11.dtd"><svg class="icon" width="48px" height="48.00px" viewBox="0 0 1024 1024" version="1.1" xmlns="http://www.w3.org/2000/svg"><path d="M874.035712 149.9648C777.335979 53.265067 648.755712 0 512.000512 0A513.672533 513.672533 0 0 0 137.097045 163.328 510.190933 510.190933 0 0 0 0.000512 512c0 282.3168 229.6832 512 512 512s512-229.6832 512-512c0-136.7552-53.265067-265.335467-149.9648-362.0352zM512.000512 985.9072C250.692779 985.9072 38.093312 773.307733 38.093312 512a472.354133 472.354133 0 0 1 126.890667-322.747733A475.5968 475.5968 0 0 1 512.000512 38.0928c126.583467 0 245.589333 49.288533 335.104 138.8032S985.907712 385.4336 985.907712 512c0 261.307733-212.599467 473.9072-473.9072 473.9072z" fill="#333333" /><path d="M758.869845 265.130667a24.285867 24.285867 0 0 0-34.321066 0L512.000512 477.678933 299.452245 265.130667a24.285867 24.285867 0 0 0-34.321066 34.321066L477.679445 512 265.131179 724.548267a24.285867 24.285867 0 0 0 34.321066 34.321066L512.000512 546.321067l212.548267 212.548266a24.285867 24.285867 0 0 0 34.321066-34.321066L546.321579 512l212.548266-212.548267a24.285867 24.285867 0 0 0 0-34.321066z" fill="#333333" /></svg>