<?xml version="1.0" standalone="no"?><!DOCTYPE svg PUBLIC "-//W3C//DTD SVG 1.1//EN" "http://www.w3.org/Graphics/SVG/1.1/DTD/svg11.dtd"><svg class="icon" width="48px" height="48.00px" viewBox="0 0 1024 1024" version="1.1" xmlns="http://www.w3.org/2000/svg"><path d="M953.6 217.6v-32C953.6 83.2 870.4 0 768 0H185.6C83.2 0 0 83.2 0 185.6v659.2C0 940.8 76.8 1024 172.8 1024h678.4c96 0 172.8-83.2 172.8-185.6V364.8c0-64-32-115.2-70.4-147.2z m0 620.8c0 57.6-44.8 108.8-96 108.8H172.8c-57.6 0-96-51.2-96-108.8V185.6c0-57.6 51.2-108.8 108.8-108.8H768c57.6 0 108.8 51.2 108.8 108.8H256c-19.2 0-38.4 19.2-38.4 38.4 0 12.8 19.2 32 38.4 32h595.2c57.6 0 96 51.2 96 108.8v473.6h6.4z m-256-179.2c19.2 0 38.4-19.2 38.4-38.4s-19.2-38.4-38.4-38.4H550.4v-25.6c12.8-6.4 19.2-12.8 32-19.2l134.4-108.8c12.8-12.8 19.2-38.4 6.4-51.2-12.8-12.8-38.4-19.2-51.2-6.4L537.6 486.4c-12.8 12.8-32 12.8-44.8 0L352 371.2c-12.8-12.8-38.4-6.4-51.2 6.4-12.8 19.2-12.8 38.4 6.4 51.2l134.4 108.8c12.8 6.4 19.2 12.8 32 19.2v25.6H326.4c-19.2 0-38.4 19.2-38.4 38.4s19.2 38.4 38.4 38.4h147.2v70.4H326.4c-19.2 0-38.4 19.2-38.4 38.4s19.2 38.4 38.4 38.4h147.2v38.4c0 19.2 19.2 38.4 38.4 38.4s38.4-19.2 38.4-38.4v-38.4h147.2c19.2 0 38.4-19.2 38.4-38.4s-19.2-38.4-38.4-38.4H550.4v-70.4h147.2z" /></svg>
