<?xml version="1.0" standalone="no"?><!DOCTYPE svg PUBLIC "-//W3C//DTD SVG 1.1//EN" "http://www.w3.org/Graphics/SVG/1.1/DTD/svg11.dtd"><svg class="icon" width="48px" height="48.00px" viewBox="0 0 1024 1024" version="1.1" xmlns="http://www.w3.org/2000/svg"><path d="M842.252288 136.530603c-18.844331 0-34.136064 15.291733-34.136064 34.136064s15.291733 34.136064 34.136064 34.136064c18.838869 0 34.129237 15.358635 34.129237 34.129237v682.666667c0 18.776064-15.290368 34.136064-34.129237 34.136064h-682.666667c-18.776064 0-34.134699-15.36-34.134698-34.136064v-682.666667c0-18.770603 15.36-34.129237 34.134698-34.129237 18.838869 0 34.130603-15.291733 34.130603-34.136064s-15.290368-34.136064-34.130603-34.136064c-56.457899 0-102.4 45.947563-102.4 102.401365v682.666667c0 56.459264 45.942101 102.401365 102.4 102.401365h682.666667c56.452437 0 102.4-45.942101 102.4-102.401365v-682.666667c0-56.453803-45.948928-102.401365-102.4-102.401365z m-546.136064 68.272128h409.598635c18.844331 0 34.136064-15.291733 34.136064-34.136064s-15.291733-34.136064-34.136064-34.136064h-37.614934C652.334421 58.639701 583.449259 0 500.917589 0c-82.537131 0-151.416832 58.639701-167.187797 136.530603h-37.614933c-18.838869 0-34.129237 15.291733-34.129238 34.136064s15.290368 34.136064 34.130603 34.136064zM500.917589 68.265301c44.442965 0 81.301504 28.672 95.506432 68.265302h-191.010133c14.196736-39.593301 51.062101-68.265301 95.503701-68.265302z m163.0208 327.614464c12.901035-12.906496 12.901035-33.932629 0-46.90193-12.901035-12.967936-33.858901-12.899669-46.833664 0L500.438357 465.578667l-114.618368-114.688c-12.698965-12.6976-33.245867-12.6976-45.942101 0-12.698965 12.6976-12.698965 33.1776 0 45.942101l126.905003 126.905003v22.396928h-102.401366c-18.837504 0-34.130603 15.290368-34.130602 34.129237 0 18.844331 15.293099 34.136064 34.130602 34.136064h102.401366v68.266667h-102.401366c-18.837504 0-34.130603 15.291733-34.130602 34.136064 0 18.837504 15.293099 34.129237 34.130602 34.129237h102.401366V853.333333c0 18.844331 15.291733 34.136064 34.134698 34.136064 18.838869 0 34.130603-15.291733 34.130603-34.136064v-102.401365h102.401365c18.844331 0 34.136064-15.291733 34.136064-34.129237 0-18.844331-15.291733-34.136064-34.136064-34.136064h-102.401365v-68.265302h102.401365c18.844331 0 34.136064-15.291733 34.136064-34.136064 0-18.838869-15.291733-34.129237-34.136064-34.129237h-102.401365V524.765867l128.890197-128.886102z m0 0" /></svg>