<?xml version="1.0" standalone="no"?><!DOCTYPE svg PUBLIC "-//W3C//DTD SVG 1.1//EN" "http://www.w3.org/Graphics/SVG/1.1/DTD/svg11.dtd"><svg class="icon" width="48px" height="48.00px" viewBox="0 0 1024 1024" version="1.1" xmlns="http://www.w3.org/2000/svg"><path d="M709.12 616.96c15.36 0 25.6-10.24 25.6-25.6V358.4l133.12-66.56v307.2c0 15.36 10.24 25.6 25.6 25.6s25.6-10.24 25.6-25.6V271.36c0-25.6-12.8-48.64-35.84-64L499.2 7.68c-23.04-12.8-56.32-12.8-79.36 0l-384 202.24c-10.24 5.12-17.92 15.36-23.04 25.6v2.56c-10.24 7.68-12.8 20.48-12.8 33.28v432.64c0 25.6 12.8 51.2 35.84 64l384 199.68c10.24 5.12 25.6 7.68 38.4 7.68 15.36 0 28.16-2.56 38.4-7.68l209.92-110.08c12.8-7.68 17.92-23.04 10.24-35.84-2.56-5.12-7.68-10.24-15.36-12.8-7.68-2.56-12.8-2.56-20.48 2.56l-199.68 102.4v-435.2l199.68-99.84V588.8c2.56 17.92 15.36 28.16 28.16 28.16zM435.2 916.48L61.44 724.48c-5.12-5.12-10.24-12.8-10.24-20.48V286.72l384 197.12v432.64z m25.6-478.72L79.36 243.2l194.56-99.84 381.44 197.12-194.56 97.28zM330.24 112.64l115.2-58.88c7.68-5.12 23.04-5.12 30.72 0L844.8 245.76l-133.12 66.56-381.44-199.68z" /><path d="M1024 657.92c0-7.68-5.12-15.36-10.24-17.92s-12.8-7.68-20.48-5.12c-7.68 0-15.36 5.12-17.92 10.24l-97.28 117.76-92.16-112.64c-5.12-5.12-12.8-10.24-17.92-10.24-7.68 0-15.36 2.56-20.48 5.12s-10.24 12.8-10.24 17.92c0 7.68 2.56 15.36 5.12 20.48l81.92 97.28H768c-15.36 0-25.6 10.24-25.6 25.6s10.24 25.6 25.6 25.6h84.48v40.96H768c-15.36 0-25.6 10.24-25.6 25.6s10.24 25.6 25.6 25.6h84.48v69.12c0 15.36 12.8 28.16 28.16 28.16s28.16-12.8 28.16-28.16v-69.12h71.68c15.36 0 25.6-10.24 25.6-25.6s-10.24-25.6-25.6-25.6h-71.68v-40.96h71.68c15.36 0 25.6-10.24 25.6-25.6s-10.24-25.6-25.6-25.6h-46.08l84.48-102.4c2.56-5.12 5.12-12.8 5.12-20.48z" /></svg>