<?xml version="1.0" standalone="no"?><!DOCTYPE svg PUBLIC "-//W3C//DTD SVG 1.1//EN" "http://www.w3.org/Graphics/SVG/1.1/DTD/svg11.dtd"><svg class="icon" width="48px" height="48.00px" viewBox="0 0 1024 1024" version="1.1" xmlns="http://www.w3.org/2000/svg"><path d="M459.78369806 741.33960689c-9.55764402-9.55764402-14.46799314-21.39509251-14.46799194-35.42466075 0-13.59114452 4.91034912-25.25322354 14.73104736-34.81086756 9.82069825-9.55764402 21.57046201-14.38030841 35.16160653-14.3803084s25.34090828 4.82266438 35.16160653 14.46799314c9.82069825 9.55764402 14.73104737 21.21972304 14.73104736 34.81086756 0 14.02956822-4.82266438 25.77933319-14.46799314 35.42466075-9.55764402 9.64532876-21.39509251 14.46799314-35.42466075 14.46799314-13.94188349-0.17536948-25.77933319-4.99803387-35.42466195-14.55567788z m-5.43645758-154.41294131c0 12.01281797 3.68276154 21.92120096 11.13597058 29.54977947 7.45320782 7.62857851 17.09853659 11.39902479 29.11135455 11.3990248 12.01281797 0 21.83351622-3.77044628 29.46209473-11.3990248 7.62857851-7.62857851 11.39902479-17.44927676 11.3990248-29.54977947v-214.82777138c0-12.01281797-3.77044628-21.74583148-11.3990248-29.19904051-7.54089377-7.36552308-17.36159081-11.13597057-29.46209473-11.13597056-11.57439427 0-21.21972304 3.77044628-28.84830033 11.39902478-7.54089377 7.62857851-11.39902479 17.27390606-11.3990248 28.84830155v214.91545612z m0 0"  /><path d="M814.1179951 909.16832446H176.2987237c-49.01580649 0-92.94589315-25.34090828-117.4099528-67.78035436-24.46406087-42.43944607-24.46406087-93.12126262 0-135.56070869l30.33894215 17.53696149-30.33894215-17.53696149 318.90963509-552.41427081c24.46406087-42.43944607 68.39414753-67.78035436 117.40995402-67.78035435s92.94589315 25.34090828 117.40995403 67.78035435l318.90963508 552.41427081c24.46406087 42.43944607 24.46406087 93.12126262 0 135.56070869-24.46406087 42.43944607-68.39414753 67.78035436-117.40995402 67.78035436zM495.20836001 155.78047981c-23.67489699 0-44.80693529 12.18818746-56.64438379 32.70643256l-318.90963629 552.41427081c-11.8374485 20.51824389-11.8374485 44.98230477 0 65.41286514 11.8374485 20.51824389 32.96948679 32.70643257 56.64438377 32.70643136h637.90695614c23.67489699 0 44.80693529-12.18818746 56.644385-32.70643136 11.8374485-20.51824389 11.8374485-44.98230477 0-65.41286514l-318.90963631-552.41427081c-11.92513324-20.51824389-33.05717153-32.70643257-56.73206852-32.70643256z"  /></svg>