<?xml version="1.0" standalone="no"?><!DOCTYPE svg PUBLIC "-//W3C//DTD SVG 1.1//EN" "http://www.w3.org/Graphics/SVG/1.1/DTD/svg11.dtd"><svg t="1532591398812" class="icon" style="" viewBox="0 0 1024 1024" version="1.1" xmlns="http://www.w3.org/2000/svg" p-id="2724" xmlns:xlink="http://www.w3.org/1999/xlink" width="48" height="48"><defs><style type="text/css"></style></defs><path d="M709.492364 742.4 742.4 709.492364 544.907636 512 742.4 314.507636 709.492364 281.6 512 479.092364 314.507636 281.6 281.6 314.507636 479.092364 512 281.6 709.492364 314.507636 742.4 512 544.907636Z" p-id="2725" fill="#d0d7e5"></path><path d="M1024 512c0-282.763636-229.236364-512-512-512C229.236364 0 0 229.236364 0 512c0 282.763636 229.236364 512 512 512C794.763636 1024 1024 794.763636 1024 512zM46.545455 512C46.545455 254.929455 254.929455 46.545455 512 46.545455s465.454545 208.384 465.454545 465.454545-208.384 465.454545-465.454545 465.454545S46.545455 769.070545 46.545455 512z" p-id="2726" fill="#d0d7e5"></path></svg>