<?xml version="1.0" standalone="no"?><!DOCTYPE svg PUBLIC "-//W3C//DTD SVG 1.1//EN" "http://www.w3.org/Graphics/SVG/1.1/DTD/svg11.dtd"><svg class="icon" width="48px" height="48.00px" viewBox="0 0 1024 1024" version="1.1" xmlns="http://www.w3.org/2000/svg"><path d="M905.842 854.357c24.462 0 43.349-17.635 43.349-38.002v-565.021c0-20.366-18.887-38.002-43.349-38.002h-780.629c-24.462 0-43.349 17.635-43.349 38.002v565.134c0 20.366 18.887 38.002 43.349 38.002l780.629-0.114zM905.842 892.131h-780.629c-44.829 0-81.123-33.906-81.123-75.662v-565.134c0-41.87 36.295-75.662 81.123-75.662h780.629c44.829 0 81.123 33.906 81.123 75.662v565.134c-0.114 41.757-36.409 75.662-81.123 75.662zM156.956 725.902s-0.91-51.769 10.923-62.805c11.719-11.037 16.498-30.72 78.962-39.822 62.35-8.989 55.865-41.074 57.913-40.050-0.341-12.174-1.593-29.241-1.593-29.241s-32.541-13.426-42.098-40.050c-20.025-7.851-17.408-12.971-19.342-23.097 0 0-6.144-41.301 7.509-40.505 0 0 8.761 0 6.713-9.557-0.683-15.815-0.683-46.421 0.341-57.003 1.024-10.581 9.102-39.026 31.744-43.235 22.642-4.21 13.539-2.048 21.163-3.186 7.509-1.024 5.347-5.234 19.456-5.234l29.127-5.803c13.995 0 22.983 22.414 30.493 23.438s9.33-3.186 24.803-0.455c22.642 4.21 19.456 34.361 20.594 44.829 1.138 10.581 3.072 39.139 0.91 48.697-2.162 9.443 4.551 8.419 4.551 8.419 16.157 0 11.15 40.505 11.15 40.505-2.503 10.695-9.216 11.947-24.349 21.277-9.557 26.624-40.163 46.307-40.163 46.307s-0.114 22.073-0.227 26.851c0.455 1.934-3.413 29.355 49.721 37.091 62.464 8.989 73.159 28.786 84.992 39.822 11.719 11.037 13.085 62.805 13.085 62.805h-376.377zM608.199 653.312h233.813v73.501h-233.813v-73.501zM608.199 506.311h233.813v73.501h-233.813v-73.501zM608.199 359.31h233.813v73.501h-233.813v-73.501z" /></svg>