<?xml version="1.0" standalone="no"?><!DOCTYPE svg PUBLIC "-//W3C//DTD SVG 1.1//EN" "http://www.w3.org/Graphics/SVG/1.1/DTD/svg11.dtd"><svg class="icon" width="48px" height="48.00px" viewBox="0 0 1024 1024" version="1.1" xmlns="http://www.w3.org/2000/svg"><path d="M215.732901 422.317445l37.384445-37.384445c17.377786-0.163729 31.41857-14.296611 31.41857-31.715329 0-10.79895-5.399987-20.332071-13.643742-26.061562L270.892175 218.142276c0-10.550287-8.55177-19.102057-19.102057-19.102057-10.549264 0-19.101033 8.55177-19.101033 19.102057l0 110.554932c-7.081279 5.818519-11.598152 14.641465-11.598152 24.520463 0 3.501754 0.576121 6.868431 1.623987 10.019191l-33.031301 33.031301c-7.192819 7.192819-7.192819 18.85544 0 26.049283S208.540082 429.510264 215.732901 422.317445z"  /><path d="M831.49001 312.556599L628.96441 312.556599l0-54.517661c0-23.295566-19.75288-42.179658-44.118823-42.179658L410.046468 215.859279c-38.666648-46.633087-97.037057-76.337619-162.347528-76.337619-116.422569 0-210.801077 94.378507-210.801077 210.801077 0 45.854351 14.648628 88.282672 39.509852 122.878608l0 271.455505c0 23.295566 19.75288 42.179658 44.118823 42.179658l53.007261 0c9.071609 55.005778 56.839543 96.965425 114.414843 96.965425 57.577347 0 105.344257-41.959647 114.415866-96.965425l182.482101 0c8.471952 0 16.385179-2.287089 23.105231-6.246261 6.011924 3.962242 13.051247 6.245238 20.578688 6.245238l39.235606 0c9.070586 55.006801 56.838519 96.966449 114.414843 96.966449 57.577347 0 105.34528-41.959647 114.416889-96.966449l52.574403 0c22.080901 0 39.981596-19.609617 39.981596-43.795459L989.153866 511.893576C991.641523 480.789161 858.100064 310.408679 831.49001 312.556599zM81.239767 350.321714c0-55.239092 26.916023-104.184851 68.337411-134.463458 27.51568-20.113083 61.428048-31.994692 98.120738-31.994692s70.605058 11.881608 98.120738 31.994692c15.014972 10.975982 28.120454 24.402783 38.73214 39.696094 18.658965 26.89658 29.606295 59.551304 29.606295 94.76634 0 91.931782-74.526367 166.458149-166.458149 166.458149-54.874795 0-103.541191-26.557866-133.8638-67.51672C93.355713 421.602154 81.239767 387.378701 81.239767 350.321714zM359.138008 786.835486c-8.383948 31.475875-37.07336 54.66911-71.189366 54.66911-34.116005 0-62.804395-23.193235-71.187319-54.66911-1.616824-6.066159-2.489704-12.434194-2.489704-19.008936 0-6.440689 0.831948-12.685927 2.384303-18.641569 8.257058-31.66314 37.043684-55.036477 71.29272-55.036477 34.251082 0 63.037708 23.373337 71.293743 55.036477 1.553379 5.954619 2.384303 12.20088 2.384303 18.641569C361.625666 774.401292 360.752786 780.769326 359.138008 786.835486zM591.539033 339.723332c-1.923816 5.127787-2.991124 10.740622-2.991124 16.627702l0 370.546338c-5.785773 13.096273-19.345604 22.286586-35.152615 22.286586L402.423861 749.183957c-8.918114-55.186903-56.772005-97.332792-114.476241-97.332792-57.704237 0-105.556081 42.146912-114.475218 97.332792l-21.496593 0c-21.065781 0-38.141692-16.325827-38.141692-36.465516L113.834116 513.166569c36.405141 29.962405 83.034135 47.956222 133.8638 47.956222 116.422569 0 210.801077-94.378507 210.801077-210.801077 0-34.085306-8.100492-66.275449-22.464641-94.76634l117.360941 0c21.066805 0 38.142715 16.325827 38.142715 36.465516L591.538009 339.723332zM853.36932 786.834462c-8.383948 31.475875-37.07336 54.670134-71.189366 54.670134-34.116005 0-62.804395-23.194258-71.188342-54.670134-1.614777-6.066159-2.488681-12.43317-2.488681-19.007913 0-6.935969 0.979304-13.640672 2.771113-20.004613 8.719592-30.966269 37.152155-53.673433 70.90591-53.673433s62.187341 22.707165 70.906933 53.673433c1.791809 6.363941 2.771113 13.068643 2.771113 20.004613C855.858 774.401292 854.984097 780.768303 853.36932 786.834462zM950.194552 711.515033c0 20.049638-14.282285 36.306904-31.899524 36.306904l-21.864984 0c-9.479909-54.516638-57.021691-95.969749-114.25009-95.969749-57.228399 0-104.769159 41.453111-114.248044 95.969749l-5.456269 0c-17.618263 0-31.899524-16.258289-31.899524-36.306904L630.576117 390.944923c0-20.052708 14.281261-36.306904 31.899524-36.306904l161.930019 0c7.150864 7.856945 16.522302 18.897396 26.926256 31.592532l-101.050464 0c-23.769356 0-43.037189 20.658506-43.037189 46.1419l0 98.04092c0 25.484418 19.267832 46.142923 43.037189 46.142923l196.34483 0c1.203408 0 2.390443-0.067538 3.568269-0.171915L950.194552 711.515033zM950.194552 542.4188l-0.00921-1.76725-169.032788 0.096191c-20.661575 0-37.413098-12.523221-37.413098-27.974122l0-59.437717c0-15.448854 16.750499-27.973098 37.413098-27.973098l101.33392-0.1361c32.94739 42.158169 65.253166 86.244246 67.707055 94.665033L950.193529 542.4188z"  /></svg>