<?xml version="1.0" standalone="no"?><!DOCTYPE svg PUBLIC "-//W3C//DTD SVG 1.1//EN" "http://www.w3.org/Graphics/SVG/1.1/DTD/svg11.dtd"><svg class="icon" width="48px" height="48.00px" viewBox="0 0 1024 1024" version="1.1" xmlns="http://www.w3.org/2000/svg"><path d="M583.68 777.728c0 73.216 59.904 133.12 133.12 133.12s133.12-59.904 133.12-133.12-59.904-133.12-133.12-133.12-133.12 59.904-133.12 133.12z m48.128 0c0-47.104 38.4-84.992 84.992-84.992 47.104 0 84.992 38.4 84.992 84.992 0 47.104-38.4 84.992-84.992 84.992s-84.992-37.888-84.992-84.992zM161.792 777.728c0 73.216 59.904 133.12 133.12 133.12s133.12-59.904 133.12-133.12-59.904-133.12-133.12-133.12-133.12 59.904-133.12 133.12z m48.128 0c0-47.104 38.4-84.992 84.992-84.992 47.104 0 84.992 38.4 84.992 84.992 0 47.104-38.4 84.992-84.992 84.992s-84.992-37.888-84.992-84.992z"  /><path d="M985.6 433.664c-41.472-110.08-80.896-169.984-205.312-230.912 0 0-5.632-2.56-11.776-2.56h-89.088v-18.432c0-37.888-30.72-68.608-68.608-68.608h-504.832c-37.888 0-68.608 30.72-68.608 68.608v551.424c0 37.888 30.72 68.608 68.608 68.608h64.512c-1.024-7.68-2.048-15.872-2.048-24.064s1.024-16.384 2.048-24.064h-64.512c-11.264 0-20.992-9.216-20.992-20.992v-130.048H939.008v130.048c0 11.264-9.216 20.992-20.992 20.992H841.728c1.024 7.68 2.048 15.872 2.048 24.064s-1.024 16.384-2.048 24.064h76.288c37.888 0 68.608-30.72 68.608-68.608v-290.816c0.512-5.12-1.024-8.704-1.024-8.704z m-46.592 17.92v102.912h-259.584v-306.688h80.896c3.584 0 7.68 2.048 7.68 2.048 100.352 51.2 134.144 100.352 169.984 192-0.512 0.512 1.024 4.608 1.024 9.728z m-854.016-269.824c0-11.264 9.216-20.992 20.992-20.992h504.832c11.264 0 20.992 9.216 20.992 20.992v373.248h-546.304l-0.512-373.248z"  /><path d="M419.84 801.792h172.544c-1.024-7.68-2.048-15.872-2.048-24.064s1.024-16.384 2.048-24.064H419.84c1.024 7.68 2.048 15.872 2.048 24.064s-1.024 16.384-2.048 24.064z"  /></svg>