<?xml version="1.0" standalone="no"?><!DOCTYPE svg PUBLIC "-//W3C//DTD SVG 1.1//EN" "http://www.w3.org/Graphics/SVG/1.1/DTD/svg11.dtd"><svg class="icon" width="48px" height="48.00px" viewBox="0 0 1024 1024" version="1.1" xmlns="http://www.w3.org/2000/svg"><path d="M883.2 832c0 44.8-38.4 83.2-83.2 83.2h-640c-44.8 0-83.2-38.4-83.2-83.2V192c0-44.8 38.4-83.2 83.2-83.2h646.4c44.8 0 76.8 32 83.2 76.8l44.8-44.8 19.2-19.2c-25.6-51.2-83.2-89.6-147.2-89.6H160C70.4 32 0 102.4 0 192v640c0 89.6 70.4 160 160 160h646.4c89.6 0 160-70.4 160-160V371.2L883.2 448v384zM217.6 288h76.8v76.8H217.6V288z m524.8 38.4v-38.4H352v76.8H704l38.4-38.4zM217.6 473.6h76.8v76.8H217.6V473.6z m377.6 0H352v76.8h166.4l76.8-76.8z m-377.6 185.6h76.8v76.8H217.6v-76.8z m134.4 0v76.8h64v-83.2h-64z m326.4 0l-76.8 76.8h140.8v-76.8h-64z m288-480l-83.2 83.2-211.2 211.2-76.8 76.8-108.8 108.8-25.6 25.6v57.6h57.6l76.8-76.8L704 550.4l38.4-38.4 140.8-140.8L960 294.4l64-64-57.6-51.2z"  /></svg>