<?xml version="1.0" standalone="no"?><!DOCTYPE svg PUBLIC "-//W3C//DTD SVG 1.1//EN" "http://www.w3.org/Graphics/SVG/1.1/DTD/svg11.dtd"><svg class="icon" width="48px" height="48.00px" viewBox="0 0 1024 1024" version="1.1" xmlns="http://www.w3.org/2000/svg"><path d="M512.9 368c-79.2 0-144 64.35-144 144s64.35 144 144 144c79.2 0 144-64.35 144-144s-64.8-144-144-144z m0 235.8c-50.85 0-91.8-41.4-91.8-91.8s41.4-91.8 91.8-91.8c50.85 0 91.8 41.4 91.8 91.8s-40.95 91.8-91.8 91.8z"  /><path d="M935.9 485.9h-56.7c-6.3-88.2-44.1-171-107.1-234s-145.8-100.35-234-106.65V88.1c0-14.4-11.7-26.1-26.1-26.1s-26.1 11.7-26.1 26.1v57.6c-87.75 6.3-170.1 44.1-232.65 107.1-63 62.55-100.35 145.35-106.65 233.1H88.1C73.7 485.9 62 497.6 62 512s11.7 26.1 26.1 26.1h58.5c6.3 87.75 43.65 170.55 106.65 233.1C315.8 833.75 398.6 872 486.35 878.3v57.6c0 14.4 11.7 26.1 26.1 26.1s26.1-11.7 26.1-26.1v-57.6a363.645 363.645 0 0 0 234-106.65c63-63 100.8-145.8 107.1-234h56.7c14.4 0 26.1-11.7 26.1-26.1S950.3 485.9 935.9 485.9zM538.1 826.55v-57.6c0-14.4-11.7-26.1-26.1-26.1s-26.1 11.7-26.1 26.1v57.15c-152.55-13.05-274.95-135.45-287.55-288.45h56.7c14.4 0 26.1-11.7 26.1-26.1s-11.7-26.1-26.1-26.1H198.8c12.6-152.55 134.55-275.4 287.55-288v57.15c0 14.4 11.7 26.1 26.1 26.1s26.1-11.7 26.1-26.1v-57.15C692.45 209.6 815.3 332 827.9 485.9h-58.5c-14.4 0-26.1 11.7-26.1 26.1s11.7 26.1 26.1 26.1h58.5c-13.5 153.45-136.35 276.3-289.8 288.45z"  /></svg>