<?xml version="1.0" standalone="no"?><!DOCTYPE svg PUBLIC "-//W3C//DTD SVG 1.1//EN" "http://www.w3.org/Graphics/SVG/1.1/DTD/svg11.dtd"><svg class="icon" width="48px" height="48.00px" viewBox="0 0 1024 1024" version="1.1" xmlns="http://www.w3.org/2000/svg"><path d="M619.328 960.128 114.752 960.128c-28.032 0-50.88-24-50.88-53.184l0-579.84 250.944-262.912 370.432 0c31.36-3.52 54.336 20.544 50.88 49.792l0.32 300.032-0.384 0L736.064 459.52l-60.544 0-9.344 0L666.176 414.016 666.176 133.952 329.92 133.952l0 210.048L133.952 344l0 546.24 485.376 0L619.328 960.128zM960.128 672.384l-160.384 0L799.744 512l-127.168 0 0 160.32L512 672.32l0 127.168 160.384 0 0 160.576 127.232 0 0-160.384 160.512 0L960.128 672.384z" /></svg>