<?xml version="1.0" standalone="no"?><!DOCTYPE svg PUBLIC "-//W3C//DTD SVG 1.1//EN" "http://www.w3.org/Graphics/SVG/1.1/DTD/svg11.dtd"><svg class="icon" width="48px" height="48.00px" viewBox="0 0 1024 1024" version="1.1" xmlns="http://www.w3.org/2000/svg"><path d="M440.493409 654.990668c10.654664 10.646478 27.92398 10.646478 38.576597 0l173.596733-173.599803c10.651594-10.651594 10.651594-27.921933 0-38.576597l-19.288299-19.288299c-10.654664-10.654664-27.927049-10.654664-38.576597 0L481.945497 536.381293c-12.240789 12.239765-32.085766 12.239765-44.326555 0l-35.70213-35.70213c-10.651594-10.651594-27.92398-10.651594-38.576597 0l-19.285229 19.288299c-10.657734 10.651594-10.657734 27.927049 0 38.581714L440.493409 654.990668z"  /><path d="M648.38932 241.538125l-59.214636 0c3.177366-8.989745 4.831029-18.699897 4.644787-28.820396-0.805342-43.753503-36.503379-79.46075-80.256882-80.277348-46.429449-0.865717-84.244706 36.947494-83.382059 83.374896 0.166799 8.994861 1.829671 17.640776 4.713348 25.721825l-59.283198 0 0 81.833797 272.779663 0L648.390343 241.538125zM471.137337 212.130352c1.054005-20.788465 17.944697-37.679158 38.733163-38.733163 24.27794-1.230014 44.223201 18.714224 42.992163 42.992163-0.487094 9.609869-4.364401 18.383696-10.440793 25.148773l-60.913325 0C474.590995 233.81114 470.564285 223.443002 471.137337 212.130352z"  /><path d="M757.50139 241.538125l-54.555523 0 0 54.555523 27.278273 0c15.065114 0 27.278273 12.213159 27.278273 27.278273l0 436.447257c0 15.065114-12.213159 27.278273-27.278273 27.278273L293.77586 787.097452c-15.065114 0-27.278273-12.213159-27.278273-27.278273L266.497587 323.371922c0-15.065114 12.213159-27.278273 27.278273-27.278273l27.278273 0 0-54.555523-54.555523 0c-30.130228 0-54.555523 24.425296-54.555523 54.555523l0 491.00278c0 30.130228 24.425296 54.555523 54.555523 54.555523l491.00278 0c30.130228 0 54.555523-24.425296 54.555523-54.555523l0-491.00278C812.057937 265.963421 787.631618 241.538125 757.50139 241.538125z"  /></svg>