<?xml version="1.0" standalone="no"?><!DOCTYPE svg PUBLIC "-//W3C//DTD SVG 1.1//EN" "http://www.w3.org/Graphics/SVG/1.1/DTD/svg11.dtd"><svg class="icon" width="48px" height="48.00px" viewBox="0 0 1024 1024" version="1.1" xmlns="http://www.w3.org/2000/svg"><path d="M512 0C307.2 0 132.266667 140.8 76.8 337.066667 29.866667 366.933333 0 422.4 0 490.666667c0 98.133333 59.733333 179.2 157.866667 179.2 21.333333 0 38.4-17.066667 38.4-38.4L196.266667 354.133333c0-17.066667-12.8-34.133333-29.866667-38.4C226.133333 174.933333 358.4 76.8 512 76.8c153.6 0 285.866667 98.133333 345.6 238.933333-17.066667 4.266667-29.866667 17.066667-29.866667 38.4l0 277.333333c0 21.333333 17.066667 38.4 38.4 38.4 8.533333 0 17.066667 0 25.6-4.266667-12.8 72.533333-42.666667 128-76.8 166.4-21.333333 25.6-38.4 42.666667-55.466667 51.2-8.533333 4.266667-12.8 8.533333-17.066667 12.8-4.266667 0-4.266667 0-4.266667 4.266667l-72.533333 0c-12.8-42.666667-59.733333-72.533333-115.2-72.533333-64 0-119.466667 42.666667-119.466667 98.133333 0 55.466667 51.2 98.133333 119.466667 98.133333 55.466667 0 98.133333-29.866667 115.2-72.533333l76.8 0c12.8 0 17.066667-4.266667 25.6-8.533333 8.533333-4.266667 17.066667-8.533333 25.6-17.066667 21.333333-12.8 42.666667-34.133333 68.266667-59.733333 42.666667-51.2 81.066667-123.733333 89.6-221.866667 46.933333-29.866667 72.533333-85.333333 72.533333-149.333333 0-68.266667-29.866667-123.733333-76.8-153.6C891.733333 140.8 716.8 0 512 0L512 0z" /></svg>