<?xml version="1.0" standalone="no"?><!DOCTYPE svg PUBLIC "-//W3C//DTD SVG 1.1//EN" "http://www.w3.org/Graphics/SVG/1.1/DTD/svg11.dtd"><svg class="icon" width="48px" height="47.81px" viewBox="0 0 1028 1024" version="1.1" xmlns="http://www.w3.org/2000/svg"><path d="M1011.05848 372.8L536.65848 40c-3.2-3.2-8.8-6.4-12-8.8-13.6-8.8-33.6-3.2-44 12L11.05848 374.4c-15.2 10.4-16.8 32-4.8 48.8C17.45848 440 39.85848 444.8 52.65848 435.2l32-23.2v546.4c0 20 16.8 36.8 36.8 36.8 20 0 36.8-16.8 36.8-36.8V359.2L511.85848 112l356 250.4v593.6c0 20 16.8 36.8 36.8 36.8 20 0 36.8-16.8 36.8-36.8V416.8l25.6 16.8c15.2 10.4 35.2 4.8 47.2-12s10.4-38.4-3.2-48.8z m-670.4 504h-60.8c-23.2 0-28.8 4.8-28.8 28.8v62.4c0 23.2 4.8 28.8 28.8 28.8H340.65848c23.2 0 28.8-4.8 28.8-28.8v-62.4c-2.4-23.2-7.2-28.8-28.8-28.8z m0-203.2h-60.8c-23.2 0-28.8 4.8-28.8 28.8v60.8c0 23.2 4.8 28.8 28.8 28.8H340.65848c23.2 0 28.8-4.8 28.8-28.8v-62.4c-2.4-22.4-7.2-27.2-28.8-27.2z m201.6 203.2h-60.8c-23.2 0-28.8 4.8-28.8 28.8v62.4c0 23.2 4.8 28.8 28.8 28.8h60.8c23.2 0 28.8-4.8 28.8-28.8v-62.4c-2.4-23.2-7.2-28.8-28.8-28.8z m201.6 0h-60.8c-23.2 0-28.8 4.8-28.8 28.8v62.4c0 23.2 4.8 28.8 28.8 28.8h60.8c23.2 0 28.8-4.8 28.8-28.8v-62.4c-2.4-23.2-7.2-28.8-28.8-28.8zM542.25848 673.6h-60.8c-23.2 0-28.8 4.8-28.8 28.8v60.8c0 23.2 4.8 28.8 28.8 28.8h60.8c23.2 0 28.8-4.8 28.8-28.8v-62.4c-2.4-22.4-7.2-27.2-28.8-27.2zM340.65848 470.4h-60.8c-23.2 0-28.8 4.8-28.8 28.8v62.4c0 23.2 4.8 28.8 28.8 28.8H340.65848c23.2 0 28.8-4.8 28.8-28.8v-62.4c-2.4-25.6-7.2-28.8-28.8-28.8z" /></svg>